<?xml version="1.0" ?><!DOCTYPE svg  PUBLIC '-//W3C//DTD SVG 1.1//EN'  'http://www.w3.org/Graphics/SVG/1.1/DTD/svg11.dtd'><svg style="enable-background:new 0 0 499.996 500.004;" version="1.1" viewBox="0 0 499.996 500.004" xml:space="preserve" xmlns="http://www.w3.org/2000/svg" xmlns:xlink="http://www.w3.org/1999/xlink"><g id="monitor-graphs"><g><path d="M249.998,0c138.067,0,249.998,111.931,249.998,250.007c0,138.067-111.931,249.998-249.998,249.998    C111.926,500.004,0,388.074,0,250.007C0,111.931,111.926,0,249.998,0z" style="fill:#5FD4AF;"/><g id="_x31_6"><path d="M361.886,139.392H138.101c-10.696,0.034-19.359,8.675-19.384,19.385v157.212     c0.026,10.709,8.688,19.367,19.384,19.393h88.914v3.231c0,1.701-0.663,4.359-1.47,5.94l-22.102,8.128     c-1.974,0.915-5.534,1.658-7.906,1.658h-4.419c-2.363,0-4.303,1.385-4.303,3.068v0.137c0,1.675,1.94,3.06,4.303,3.06h117.751     c2.372,0,4.308-1.385,4.308-3.06v-0.137c0-1.683-0.91-3.068-2-3.068c-1.115,0-3.936-0.196-6.282-0.445l-28.478-10.581     c-2.004-0.906-3.645-3-3.645-4.701v-3.231h89.115c10.701-0.025,19.363-8.683,19.393-19.393V158.776     C381.249,148.067,372.587,139.426,361.886,139.392z" style="fill:#59616A;"/><path d="M334.459,322.143c-1.273,0-2.316-1.556-2.316-3.479c0-1.915,1.043-3.479,2.316-3.479     c1.273,0,2.316,1.564,2.316,3.479C336.775,320.587,335.732,322.143,334.459,322.143z" style="fill:#5FD4AF;"/><path d="M356.266,322.143h-9.192c-2.367,0-4.303-1.556-4.303-3.479c0-1.915,1.936-3.479,4.303-3.479h9.192     c2.389,0,4.312,1.564,4.312,3.479C360.578,320.587,358.655,322.143,356.266,322.143z" style="fill:#FF9554;"/><linearGradient gradientUnits="userSpaceOnUse" id="SVGID_1_" x1="179.5775" x2="320.4061" y1="129.74" y2="330.8641"><stop offset="0.5" style="stop-color:#FFFFFF"/><stop offset="0.5" style="stop-color:#EBEBEB"/></linearGradient><path d="M363.3,297.587c-0.026,3.436-2.923,6.325-6.363,6.342H143.059     c-3.457-0.017-6.354-2.906-6.354-6.342V163.033c0-3.453,2.897-6.342,6.354-6.359h213.878c3.44,0.017,6.337,2.906,6.363,6.359     V297.587z" style="fill:url(#SVGID_1_);"/><path d="M307.544,280.98c0,1.615-1.299,2.923-2.906,2.923H195.366c-0.769,0-1.513-0.316-2.064-0.855     c-0.543-0.547-0.846-1.308-0.846-2.069v-99.255c0-1.616,1.295-2.923,2.91-2.923c1.611,0,2.914,1.308,2.914,2.923v42.179h3.458     c0.594,0,1.064,1.103,1.064,2.436c0,1.325-0.47,2.427-1.064,2.427h-3.458v49.307h17.227c-0.295-0.658-0.474-1.35-0.474-2.085     v-38.273c0-2.752,2.256-4.991,5.004-4.991h7.483c2.743,0,5.004,2.239,5.004,4.991v38.273c0,0.735-0.179,1.427-0.483,2.085h15.154     c-0.295-0.658-0.466-1.35-0.466-2.085v-82.7c0-2.752,2.252-5.008,5.004-5.008h7.466c2.748,0,5.013,2.256,5.013,5.008v82.7     c0,0.735-0.171,1.427-0.474,2.085h15.141c-0.295-0.658-0.474-1.35-0.474-2.085v-60.854c0-2.752,2.261-5,5.013-5h7.474     c2.744,0,5.004,2.248,5.004,5v60.854c0,0.735-0.171,1.427-0.474,2.085h9.218C306.245,278.074,307.544,279.382,307.544,280.98z" style="fill:#59616A;"/></g></g></g><g id="Layer_1"/></svg>